<svg id="Camada_1" data-name="Camada 1" xmlns="http://www.w3.org/2000/svg" viewBox="0 0 37.46 43"><defs><style>.cls-1{fill:#fee4bf;}.cls-2{fill:#ea877d;fill-opacity:1;}</style></defs><title>icon zuli</title><path id="path925" class="cls-1" d="M31.72,12.9c-.28-.27-.23-.51.28-1.26a10.49,10.49,0,0,1,3.68-3.15c1.45-.66,1.89-.75,2.72-.57A1.43,1.43,0,0,1,39.72,9.4c.12,1-.15,1.57-1.15,2.48s-1.51,1-3.21,1c-.69,0-1.75,0-2.36.07s-1.16,0-1.28-.1Z" transform="translate(-3.04 -1)"/><path id="path824" class="cls-2" d="M27.34,19.56c-.17-.54.53-2.84,1.24-4.08a11.34,11.34,0,0,0,1.26-5.2c0-1.58.1-1.92.49-1.92.57,0,.81.57.81,2v1l1.64-1.54c2.34-2.21,3.09-2.61,4.85-2.61,1.27,0,1.62.12,2.21.75.85.92.87,1.3.13,2.79s-1.47,2-4,2.82a5.38,5.38,0,0,1-3.2.42c-.67-.15-1.2-.15-1.3,0a1.54,1.54,0,0,1-.74.44c-.61.2-2,2.08-1.77,2.35s-.52,2-1.08,2.77c-.36.51-.37.51-.52,0Zm8.57-7.23c2.17-.74,3.21-1.65,3.21-2.83s-.51-1.31-2.22-.84C35.63,9,35,9.38,33,11.09l-.85.72.91-.45a4.5,4.5,0,0,1,1.54-.44c.6,0,.61,0,.13.55a5.77,5.77,0,0,1-1.39,1l-.91.44h.87a11.28,11.28,0,0,0,2.62-.58Z" transform="translate(-3.04 -1)"/><path id="path909" class="cls-1" d="M21.32,43.76A5.31,5.31,0,0,1,19.71,43a26.82,26.82,0,0,1-3.72-4c-.54-.69-1.16-1.45-1.37-1.68a6.61,6.61,0,0,1-.77-1.1c-.21-.37-.62-1-.92-1.51a4.69,4.69,0,0,1-.29-4.16c.21-.4.75-1.65,1.2-2.77A21.5,21.5,0,0,1,15.2,25a3.42,3.42,0,0,0,.57-1.16,16.34,16.34,0,0,1,1.08-2.43,71.51,71.51,0,0,1,4-8.13c1.26-2.07,3.69-2.63,4.59-.89,3.31,5.18,5.23,11.78,7.61,16.54a9.54,9.54,0,0,1,.79,3.4,4,4,0,0,1-.51,2.14c-1.63,2.8-4.91,7.37-7.38,8.84-1.26.92-3.17.83-4.61.49Zm6.16-3.1c-.1-.11-1.06.59-1.07.79s.26,0,.58-.28.54-.46.49-.51Zm-.89-1c0-.68-.11-.43-.25.47-.08.53-.06.65.06.38a2.64,2.64,0,0,0,.19-.85Zm2.53-.62c0-.11-.09-.14-.2-.08a.45.45,0,0,0-.19.32c0,.1.09.14.19.07a.42.42,0,0,0,.2-.31Zm-1.65-2a10.68,10.68,0,0,1,.72-1.79c.14-.17.13-.24-.05-.24S28,35,28,34.88a5.78,5.78,0,0,1,2.54-.09c.05.1.51.09,1,0,1-.19,1.59-.73,1.6-1.5,0-.43,0-.45-.34-.17-.94.84-3.59,1.36-4.49.88-.35-.19-.52-.48-.63-1.1-.19-1.13-.34-1.24-.34-.25,0,.77,0,.82-1,1.29a2.52,2.52,0,0,1-1.5.39c-.29,0-1.32-.14-2.27-.2a24.56,24.56,0,0,1-8.51-1.91c-.53-.26-1-.39-1.08-.29a2.09,2.09,0,0,0,0,.85c.08.62.12.67.59.56a3.41,3.41,0,0,0,.58-.18,28.28,28.28,0,0,1,3.42,1.37,22.81,22.81,0,0,0,6.74,1c2.1,0,2.71.33,2.57,1.25-.32,2.19-.33,2.33-.16,2.05A15,15,0,0,0,27.47,37Zm4.26-1.26c.07-.1,0-.14-.18-.07-.34.13-.4.27-.12.27a.42.42,0,0,0,.3-.2ZM32.16,31c-.2-.65-.56-.58-.43.09a4.55,4.55,0,0,1,.08.67c0,.29.07.32.29.14s.22-.36.06-.9Zm-18.37.23c-.13-.15-.28-.25-.31-.21s.17.48.37.48.08-.13-.06-.27Zm13.71.12a13.2,13.2,0,0,1-.2-1.79c-.1-1.54-.45-5.17-.61-6.48-.34-2.74-.9-3.86-.75-1.47.09,1.29-.12,1.77-.58,1.39s-.39-.6,0-.6c.2,0,.24-.21.17-.82-.11-1-.24-1.2-.24-.38s-.17,1.2-.4,1.2a4.28,4.28,0,0,1-1-.75c-.8-.74-1.42-2.08-1.21-2.63.06-.14-.1-.29-.37-.36-.6-.15-1.69-1.25-1.69-1.71,0-.19-.09-.35-.2-.35s-.16-.18-.08-.43-.15,0-.48.57a4.3,4.3,0,0,0-.59,1.51,2,2,0,0,1-.17.83c-.29.58-.44,1.43-.22,1.3a.66.66,0,0,0,.2-.5c0-.4.28-.51.48-.18a.88.88,0,0,0,.61.19,1.83,1.83,0,0,1,1.06.57c.53.53.57.66.52,1.85s.11,1.63.75,1.64c.37,0,1,1.7,1,2.69,0,1.44.11,1.57.94,1.57,1.21,0,2,.22,2.09.59a.7.7,0,0,0,.36.45q.27.11.27,1a2.87,2.87,0,0,0,.13,1.07c.18.17.3.16.19,0Zm-12.81-.61c.06-.09,0-.27-.18-.41s-.29-.17-.29.18.28.55.47.23Zm17.36-2.38c-.13-.14-.22-.15-.22,0s.22.49.35.36,0-.2-.13-.33Zm-.78-1.75c-.19-.19-.21-.17-.11.11s.18.3.24.24,0-.22-.13-.35ZM26,19.5c-.06-.16-.11-.11-.12.11s0,.32.11.26a.39.39,0,0,0,0-.37Zm-.43-2.68c-.32-1.47-.35-2.36-.1-2.62s-.88-2.67-1.15-2.5a.22.22,0,0,0-.08.31,7.36,7.36,0,0,1,.29,1.29c.41,2.66,1,5.06,1.23,4.86a4.91,4.91,0,0,0-.19-1.34Zm.32-2.25c-.23-.4-.28-.27-.09.22.06.17.16.27.21.22s0-.25-.12-.44Z" transform="translate(-3.04 -1)"/><path class="cls-2" d="M18.13,30.86c-.29-.11-.52-.32-.52-.49,0-.53-1.41-1.6-3.21-2.45l-1.77-.84-1.13.57a3.93,3.93,0,0,1-5.06-.86c-.86-1-.91-1.28-.35-2.36.46-.9,1.52-1.23,3.11-1,1,.17,1.48.45,3.14,2A11.93,11.93,0,0,0,14.77,27a10.14,10.14,0,0,1,1.89,1.06c.15.17.59.58,1,.92l.71.62-.59-2.06a10.06,10.06,0,0,0-1.11-2.66c-.29-.32-1-1.16-1.53-1.86-.79-1-1.16-1.25-1.7-1.19a2,2,0,0,0-.86.25c-.59.59-6.05-.26-6.05-.94,0-.13-.16-.23-.36-.23-.53,0-2.6-2.3-2.93-3.26a3.4,3.4,0,0,1,.62-3.23c.53-.57.76-.61,2.64-.5a8.8,8.8,0,0,1,3.61.87c2.17,1,4,3.41,4,5.19,0,.45.47,1.15,1.4,2.09,1.08,1.1,1.34,1.26,1.16.73a30,30,0,0,1-.26-4.53c0-3.5-.07-3.91-.59-4.47-1.3-1.42-2-3.67-2.14-7.25-.08-1.74,0-2.18.51-3C16.06.38,19.94.13,21.48,3a4.9,4.9,0,0,1,.37,3,9.63,9.63,0,0,1-3,6.67l-1.53,1.59.15,2.3c.39,6,1.06,10.55,1.69,11.51a6.39,6.39,0,0,1,.61,1.82c.22,1.2.21,1.24-.42,1.2a4.75,4.75,0,0,1-1.18-.23Z" transform="translate(-3.04 -1)"/><path id="path927" class="cls-1" d="M8.85,27.58c-2.63-.94-2.73-3.65-.13-3.65a3.47,3.47,0,0,1,2.63,1.24c.69.8.79,1.36.34,1.83a2.46,2.46,0,0,1-2.84.58Z" transform="translate(-3.04 -1)"/><path id="path923" class="cls-1" d="M12.22,21.3a9.92,9.92,0,0,0-1.56-.21A13.33,13.33,0,0,1,6,19.84a5.67,5.67,0,0,1-2-2.5,2.14,2.14,0,0,1,1.34-2.59A7.34,7.34,0,0,1,9,15,10,10,0,0,1,13,18.54c.12.22.47.8.78,1.3.59,1,.66,1.23.38,1.51s-.83.21-2-.05Z" transform="translate(-3.04 -1)"/><path id="path919" class="cls-1" d="M16.59,13.31a2.21,2.21,0,0,1-.26-.64,2.12,2.12,0,0,0-.43-.81,7.22,7.22,0,0,1-1.12-2.27.42.42,0,0,0-.13-.32,9.48,9.48,0,0,1-.44-3.56,3.41,3.41,0,0,1,.6-2.13,4.87,4.87,0,0,1,2.72-2.07,3,3,0,0,1,3.11.76l.68.63v1a11.37,11.37,0,0,1-1.25,5.13,16.68,16.68,0,0,1-2.73,4.26c-.29.23-.54.23-.74,0Z" transform="translate(-3.04 -1)"/></svg>